<?xml version="1.0" encoding="utf-8"?>
<!-- Generator: Adobe Illustrator 16.0.0, SVG Export Plug-In . SVG Version: 6.00 Build 0)  -->
<!DOCTYPE svg PUBLIC "-//W3C//DTD SVG 1.1//EN" "http://www.w3.org/Graphics/SVG/1.1/DTD/svg11.dtd">
<svg version="1.1" id="Layer_1" xmlns="http://www.w3.org/2000/svg" xmlns:xlink="http://www.w3.org/1999/xlink" x="0px" y="0px"
	 width="139.259px" height="33.556px" viewBox="0 0 139.259 33.556" enable-background="new 0 0 139.259 33.556"
	 xml:space="preserve">
<circle fill="#33BEA8" cx="16.653" cy="16.819" r="15.486"/>
<g>
	<path fill="#FFFFFF" d="M24.382,19.662v0.674c-0.617,0.579-1.145,1.047-1.576,1.401c-0.434,0.354-0.865,0.674-1.295,0.957
		s-0.785,0.485-1.068,0.605s-0.525,0.181-0.729,0.181c-0.48,0-0.875-0.179-1.182-0.537c-0.305-0.358-0.459-0.82-0.459-1.387
		c0-0.651,0.133-1.296,0.396-1.934s0.639-1.298,1.127-1.978s1.102-1.443,1.836-2.29c0.547-0.625,0.82-0.977,0.82-1.055
		c0-0.046-0.016-0.085-0.049-0.117c-0.031-0.032-0.068-0.049-0.107-0.049c-0.123,0-0.504,0.273-1.143,0.82
		c-0.637,0.547-1.457,1.351-2.455,2.412c-1,1.062-2.079,2.324-3.238,3.789c-0.065,0.078-0.272,0.344-0.62,0.796
		s-0.594,0.747-0.737,0.884s-0.267,0.205-0.371,0.205c-0.182,0-0.34-0.184-0.474-0.552s-0.2-0.76-0.2-1.177
		c0-0.254,0.083-0.527,0.249-0.82s0.527-0.819,1.084-1.577s1.017-1.398,1.382-1.919s0.765-1.152,1.201-1.895
		c0.306-0.515,0.532-0.925,0.679-1.23c0.147-0.306,0.219-0.576,0.219-0.811c0-0.202-0.059-0.303-0.176-0.303
		c-0.247,0-0.712,0.331-1.396,0.991s-1.528,1.643-2.534,2.944s-2.056,2.81-3.149,4.521c-0.358,0.586-0.612,0.979-0.762,1.182
		s-0.316,0.303-0.498,0.303c-0.228,0-0.441-0.242-0.64-0.728s-0.298-0.877-0.298-1.177c0-0.098,0.039-0.205,0.117-0.322
		c0.859-1.146,1.566-2.119,2.119-2.92s1.045-1.562,1.475-2.28s0.742-1.312,0.938-1.777s0.293-0.832,0.293-1.099
		c0-0.28-0.127-0.42-0.381-0.42c-0.208,0-0.563,0.134-1.064,0.4s-1.134,0.632-1.899,1.094s-1.378,0.815-1.841,1.06
		s-0.807,0.366-1.035,0.366c-0.215,0-0.322-0.12-0.322-0.361c0-0.137,0.045-0.45,0.137-0.942s0.186-0.838,0.283-1.04
		c0.137-0.261,0.487-0.605,1.05-1.035s0.874-0.645,0.933-0.645c0.052,0,0.078,0.022,0.078,0.068c0,0.026-0.026,0.065-0.078,0.117
		c-0.267,0.215-0.465,0.391-0.596,0.527s-0.211,0.286-0.244,0.449c1.191-0.716,2.257-1.261,3.198-1.636
		c0.941-0.375,1.593-0.562,1.958-0.562c0.182,0,0.355,0.122,0.518,0.366s0.301,0.527,0.415,0.85s0.171,0.529,0.171,0.62
		c0,0.332-0.084,0.724-0.254,1.177s-0.399,0.979-0.688,1.577s-0.649,1.348-1.079,2.246c0.338-0.437,0.661-0.84,0.967-1.211
		s0.61-0.732,0.913-1.084s0.61-0.706,0.923-1.064c0.423-0.488,0.898-0.956,1.426-1.401s1.021-0.811,1.48-1.094
		s0.77-0.425,0.932-0.425c0.229,0,0.432,0.126,0.611,0.376c0.178,0.25,0.268,0.52,0.268,0.806c0,0.188-0.123,0.55-0.371,1.084
		c-0.246,0.534-0.607,1.218-1.084,2.051c-0.475,0.833-1.103,1.907-1.884,3.223c0.742-0.788,1.513-1.599,2.314-2.432
		s1.396-1.442,1.787-1.826s0.717-0.677,0.977-0.879c0.359-0.273,0.719-0.567,1.08-0.884s0.646-0.564,0.854-0.747
		c0.209-0.183,0.395-0.322,0.557-0.42c0.164-0.098,0.312-0.146,0.449-0.146c0.17,0,0.383,0.195,0.641,0.586
		c0.256,0.391,0.385,0.642,0.385,0.752c0,0.137-0.076,0.3-0.229,0.488c-0.154,0.188-0.471,0.54-0.953,1.055
		c-0.885,0.95-1.652,1.909-2.305,2.876c-0.65,0.967-1.145,1.85-1.479,2.646c-0.336,0.797-0.504,1.428-0.504,1.89
		c0,0.286,0.055,0.495,0.162,0.625s0.275,0.195,0.502,0.195c0.209,0,0.402-0.039,0.582-0.117c0.178-0.078,0.377-0.188,0.596-0.332
		c0.217-0.144,0.424-0.28,0.619-0.41c0.273-0.163,0.543-0.337,0.807-0.522s0.469-0.332,0.615-0.439S24.312,19.708,24.382,19.662z"/>
</g>
<g>
	<path fill="#FFFFFF" d="M55.723,24.004v-7.104c0-2.28-1.536-3.889-3.792-3.889c-2.256,0-3.816,1.68-3.816,3.961v7.032h-1.176
		v-7.032c0-2.281-1.56-3.937-3.816-3.937s-3.792,1.655-3.792,3.937v7.032h-1.176V12.147h1.104l0.024,1.968
		c0.816-1.561,2.328-2.208,3.864-2.208c1.8,0,3.696,0.816,4.393,2.928c0.72-1.943,2.568-2.928,4.392-2.928
		c2.904,0,4.969,2.04,4.969,4.992v7.104H55.723z"/>
	<path fill="#FFFFFF" d="M71.61,12.147c0,3.96,0,7.896,0,11.856h-1.176v-2.521c-1.152,1.849-2.928,2.713-4.848,2.713
		c-3.312,0-6.025-2.496-6.025-6.121c0-3.624,2.712-6.072,6.025-6.072c1.92,0,3.864,0.889,4.848,2.736v-2.592H71.61z M60.737,18.075
		c0,2.977,2.16,4.969,4.849,4.969c6.601,0,6.601-9.913,0-9.913C62.897,13.131,60.737,15.099,60.737,18.075z"/>
	<path fill="#FFFFFF" d="M86.178,7.203v16.801h-1.152v-2.616c-0.984,1.8-2.928,2.809-4.944,2.809c-3.312,0-5.929-2.185-5.929-6.121
		c0-3.912,2.641-6.12,5.953-6.12c2.04,0,3.96,0.864,4.92,2.784V7.203H86.178z M75.305,18.075c0,3.288,2.184,4.969,4.848,4.969
		c2.785,0,4.849-2.04,4.849-4.992c0-2.953-2.112-4.969-4.849-4.969C77.489,13.083,75.305,14.739,75.305,18.075z"/>
	<path fill="#FFFFFF" d="M99.281,22.348c-1.2,1.2-2.76,1.776-4.32,1.776c-3.336,0-6.097-2.305-6.097-6.049s2.664-6.049,6.097-6.049
		c1.56,0,3.12,0.601,4.32,1.777l-0.768,0.743c-0.96-0.96-2.28-1.416-3.552-1.416c-2.688,0-4.944,1.753-4.944,4.944
		c0,3.192,2.256,4.944,4.944,4.944c1.272,0,2.568-0.504,3.528-1.464L99.281,22.348z"/>
	<path fill="#FFFFFF" d="M102.808,7.203v7.152c0.96-1.703,2.616-2.352,4.272-2.375c3.312,0,4.969,2.136,4.969,5.232v6.792h-1.152
		v-6.792c0-2.449-1.152-4.105-3.816-4.105c-2.496,0-4.225,1.921-4.225,4.393v6.505h-1.176V7.203H102.808z"/>
	<path fill="#FFFFFF" d="M126.521,12.147c0,3.96,0,7.896,0,11.856h-1.176v-2.521c-1.152,1.849-2.928,2.713-4.849,2.713
		c-3.312,0-6.024-2.496-6.024-6.121c0-3.624,2.713-6.072,6.024-6.072c1.921,0,3.864,0.889,4.849,2.736v-2.592H126.521z
		 M115.649,18.075c0,2.977,2.16,4.969,4.848,4.969c6.601,0,6.601-9.913,0-9.913C117.809,13.131,115.649,15.099,115.649,18.075z"/>
	<path fill="#FFFFFF" d="M131.919,8.571v3.577h4.032v0.983h-4.032v7.225c0,1.608,0.336,2.736,2.185,2.736
		c0.576,0,1.224-0.192,1.824-0.48l0.408,0.961c-0.744,0.359-1.488,0.6-2.232,0.6c-2.521,0-3.337-1.488-3.337-3.816v-7.225h-2.52
		v-0.983h2.52V8.69L131.919,8.571z"/>
</g>
</svg>
